<?xml version="1.0" standalone="no"?>
<!DOCTYPE svg PUBLIC "-//W3C//DTD SVG 20010904//EN"
 "http://www.w3.org/TR/2001/REC-SVG-20010904/DTD/svg10.dtd">
<svg version="1.0" xmlns="http://www.w3.org/2000/svg"
 width="1280.000000pt" height="854.000000pt" viewBox="0 0 1280.000000 854.000000"
 preserveAspectRatio="xMidYMid meet">
<metadata>
Created by potrace 1.15, written by Peter Selinger 2001-2017
</metadata>
<g transform="translate(0.000000,854.000000) scale(0.100000,-0.100000)"
fill="#000000" stroke="none">
<path d="M5659 7390 c-25 -4 -61 -15 -78 -25 -38 -19 -181 -146 -271 -239 -34
-36 -70 -68 -79 -71 -18 -6 -112 -142 -135 -195 -55 -133 -71 -298 -41 -439
17 -81 15 -77 97 -215 81 -136 90 -146 179 -216 79 -63 99 -94 99 -157 0 -12
7 -55 15 -95 8 -40 20 -109 26 -152 14 -92 65 -204 127 -283 23 -28 79 -89
127 -136 90 -90 106 -125 65 -147 -11 -6 -80 -18 -153 -26 -143 -15 -233 -32
-372 -69 -49 -13 -126 -29 -170 -35 -143 -21 -380 -102 -545 -185 -36 -18
-130 -79 -210 -134 -80 -55 -205 -140 -278 -188 -239 -157 -282 -193 -379
-315 -49 -62 -97 -125 -106 -139 -27 -41 -67 -169 -67 -213 1 -62 35 -174 67
-220 37 -54 193 -171 263 -197 161 -62 411 -34 610 66 83 42 123 72 243 184
55 50 106 91 114 91 8 0 43 16 78 35 75 42 99 31 43 -19 -85 -75 -210 -251
-282 -395 -74 -148 -119 -213 -187 -269 -35 -29 -106 -89 -156 -133 -95 -81
-120 -92 -144 -62 -23 27 -239 207 -277 230 -91 55 -268 51 -367 -9 -27 -17
-64 -36 -83 -42 -34 -12 -176 -138 -294 -261 -42 -44 -79 -95 -99 -135 -17
-36 -46 -85 -64 -110 -18 -25 -47 -83 -66 -130 -31 -78 -33 -94 -33 -190 2
-282 147 -575 372 -752 37 -28 84 -67 104 -85 82 -71 294 -161 568 -239 87
-24 109 -26 255 -25 144 1 168 4 239 28 78 25 83 29 241 179 89 84 175 163
191 176 48 36 114 96 215 195 91 88 99 94 147 100 29 3 72 0 99 -7 128 -32
395 -71 728 -104 88 -9 185 -24 215 -32 30 -9 89 -22 130 -29 112 -20 202 -41
330 -75 63 -17 161 -42 218 -57 124 -31 136 -43 182 -182 30 -94 107 -226 165
-284 15 -15 59 -43 97 -63 39 -19 88 -47 111 -61 23 -14 62 -32 87 -39 25 -7
86 -27 135 -44 210 -71 432 -76 630 -13 293 92 356 125 469 244 45 47 96 112
113 145 17 32 45 85 62 118 17 32 31 66 31 76 0 9 13 35 30 58 16 23 48 76 71
120 39 76 41 82 42 178 1 109 -27 233 -75 329 -15 29 -28 78 -32 115 -9 86
-22 126 -60 178 -38 54 -31 68 44 92 84 27 141 64 184 120 111 145 102 316
-36 645 -78 189 -344 632 -465 777 -75 88 -234 235 -368 339 -98 75 -164 127
-284 222 -259 204 -306 238 -373 263 -67 26 -75 37 -56 77 18 39 111 147 244
287 106 111 143 165 236 352 68 136 68 137 111 148 159 40 324 160 402 294 70
120 92 317 57 521 -31 176 -54 241 -118 332 -124 173 -199 242 -338 312 -111
56 -169 65 -284 47 -103 -17 -151 -42 -201 -105 -40 -50 -59 -56 -108 -36
-252 108 -317 129 -455 150 -182 28 -606 8 -875 -40 -134 -24 -132 -26 -183
98 -45 110 -93 156 -190 185 -78 23 -179 27 -271 12z m2530 -4657 c57 -84 110
-131 193 -172 61 -30 73 -40 73 -61 0 -27 -23 -37 -85 -39 -19 0 -75 -9 -124
-18 -86 -16 -89 -16 -102 2 -10 13 -14 49 -14 115 0 53 -5 122 -11 153 -17 97
11 105 70 20z"/>
</g>
</svg>
